<svg width="32" height="32" viewBox="0 0 32 32" fill="none" xmlns="http://www.w3.org/2000/svg">
<rect width="32" height="32" rx="4" fill="#141414"/>
<path d="M9.5 26C11.9853 26 14 23.9853 14 21.5C14 19.0147 11.9853 17 9.5 17C7.01472 17 5 19.0147 5 21.5C5 23.9853 7.01472 26 9.5 26Z" fill="url(#paint0_linear)"/>
<path d="M3 7H29" stroke="#5C5C5C" stroke-width="2" stroke-linecap="round" stroke-linejoin="round"/>
<path d="M15.5 21C17.9853 21 20 18.9853 20 16.5C20 14.0147 17.9853 12 15.5 12C13.0147 12 11 14.0147 11 16.5C11 18.9853 13.0147 21 15.5 21Z" fill="url(#paint1_linear)"/>
<path d="M22.5 26C24.9853 26 27 23.9853 27 21.5C27 19.0147 24.9853 17 22.5 17C20.0147 17 18 19.0147 18 21.5C18 23.9853 20.0147 26 22.5 26Z" fill="url(#paint2_linear)"/>
<defs>
<linearGradient id="paint0_linear" x1="5" y1="17" x2="14" y2="26" gradientUnits="userSpaceOnUse">
<stop stop-color="#3DE19C"/>
<stop offset="1" stop-color="#1BC97F"/>
</linearGradient>
<linearGradient id="paint1_linear" x1="11" y1="12" x2="20" y2="21" gradientUnits="userSpaceOnUse">
<stop stop-color="#FFDF61"/>
<stop offset="1" stop-color="#F9CD1D"/>
</linearGradient>
<linearGradient id="paint2_linear" x1="18" y1="17" x2="27" y2="26" gradientUnits="userSpaceOnUse">
<stop stop-color="#FD5C84"/>
<stop offset="1" stop-color="#E4315E"/>
</linearGradient>
</defs>
</svg>
