<svg width="34" height="36" viewBox="0 0 34 36" fill="none" xmlns="http://www.w3.org/2000/svg">
<path d="M34 17C34 26.389 26.389 34 17 34C7.612 34 0 26.389 0 17C0 7.612 7.612 0 17 0C26.389 0 34 7.612 34 17Z" fill="#FFCC4D"/>
<path d="M17 27C20.866 27 24 23.6421 24 19.5C24 15.3579 20.866 12 17 12C13.134 12 10 15.3579 10 19.5C10 23.6421 13.134 27 17 27Z" fill="#664500"/>
<path d="M21.468 27.371C21.468 27.371 22.465 26.65 21.633 25.757C20.801 24.864 20.012 25.809 20.012 25.809L15.864 29.675C15.795 29.47 15.405 28.932 15.314 28.728L21.069 23.362C21.069 23.362 22.067 22.641 21.233 21.747C20.401 20.855 19.611 21.798 19.611 21.798L14.198 26.844C14.073 26.686 13.737 26.304 13.604 26.146L19.88 20.296C19.88 20.296 20.877 19.574 20.044 18.682C19.212 17.789 18.423 18.733 18.423 18.733L12.145 24.581C11.995 24.436 11.533 23.972 11.381 23.835L17.247 18.367C17.247 18.367 18.243 17.645 17.411 16.753C16.578 15.86 15.79 16.804 15.79 16.804L9.587 22.585L9.09 23.049L8.87 23.256C8.87 23.256 8.332 24 7.783 23.435L9.625 19.277C9.625 19.277 10.205 18.203 9.132 17.622C8.057 17.041 7.477 18.115 7.477 18.115L5.809 20.873C5.146 21.966 4.46 23.051 3.65 24.04C1.366 26.833 1.439 30.954 3.968 33.669C6.727 36.628 11.364 36.791 14.323 34.033L14.77 33.615L21.468 27.371V27.371Z" fill="#F4900C"/>
<path d="M10.016 6.08C7.76099 6.684 6.53599 8.045 6.46099 8.13C6.09699 8.545 6.13799 9.177 6.55199 9.542C6.96699 9.907 7.59799 9.867 7.96299 9.451C8.04199 9.364 10.053 7.198 13.773 7.959C14.315 8.07 14.843 7.72 14.953 7.18C15.064 6.639 14.715 6.11 14.174 6C12.539 5.664 11.148 5.777 10.016 6.08V6.08ZM23.984 6.081C22.852 5.778 21.461 5.665 19.825 5.999C19.284 6.11 18.935 6.638 19.046 7.179C19.158 7.72 19.685 8.069 20.226 7.958C23.95 7.196 25.957 9.363 26.04 9.455C26.407 9.862 27.04 9.899 27.45 9.533C27.86 9.167 27.901 8.542 27.538 8.129C27.463 8.045 26.238 6.685 23.984 6.081V6.081Z" fill="#664500"/>
</svg>
