<svg width="36" height="36" viewBox="0 0 36 36" fill="none" xmlns="http://www.w3.org/2000/svg">
<path d="M36 18C36 27.941 27.941 36 18 36C8.059 36 0 27.941 0 18C0 8.059 8.059 0 18 0C27.941 0 36 8.059 36 18Z" fill="#FFCC4D"/>
<path d="M18 21C14.377 21 11.973 20.578 9 20C8.321 19.869 7 20 7 22C7 26 11.595 31 18 31C24.404 31 29 26 29 22C29 20 27.679 19.868 27 20C24.027 20.578 21.623 21 18 21Z" fill="#664500"/>
<path d="M9 22C9 22 12 23 18 23C24 23 27 22 27 22C27 22 25 26 18 26C11 26 9 22 9 22Z" fill="white"/>
<path d="M15.682 4.413L11.14 5.214L8.8 0.961C8.542 0.492 8.012 0.241 7.488 0.333C6.961 0.426 6.551 0.844 6.469 1.372L5.724 6.169L1.182 6.97C0.646999 7.064 0.233999 7.495 0.160999 8.034C0.0879991 8.573 0.371999 9.097 0.863999 9.331L4.934 11.263L4.186 16.075C4.103 16.611 4.375 17.139 4.859 17.384C5.038 17.474 5.23 17.517 5.421 17.517C5.748 17.517 6.071 17.389 6.312 17.145L9.824 13.584L14.342 15.729C14.832 15.961 15.416 15.852 15.788 15.457C16.16 15.062 16.234 14.473 15.973 13.998L13.625 9.73L16.79 6.522C17.172 6.135 17.259 5.545 17.007 5.063C16.753 4.581 16.214 4.32 15.682 4.413V4.413ZM20.318 4.413L24.86 5.214L27.2 0.961C27.458 0.492 27.988 0.241 28.512 0.333C29.038 0.426 29.448 0.844 29.53 1.372L30.275 6.169L34.817 6.97C35.353 7.064 35.766 7.494 35.838 8.033C35.91 8.572 35.627 9.096 35.135 9.33L31.065 11.262L31.813 16.074C31.896 16.61 31.624 17.138 31.14 17.383C30.961 17.473 30.769 17.516 30.578 17.516C30.251 17.516 29.928 17.388 29.687 17.144L26.175 13.583L21.657 15.728C21.167 15.96 20.583 15.851 20.211 15.456C19.839 15.061 19.765 14.472 20.026 13.997L22.374 9.73L19.209 6.522C18.827 6.135 18.74 5.545 18.992 5.063C19.247 4.581 19.786 4.32 20.318 4.413V4.413Z" fill="#E95F28"/>
</svg>
